<svg width="24" height="24" viewBox="0 0 24 24" fill="none" xmlns="http://www.w3.org/2000/svg">
<g opacity="0.7">
<path d="M8 6.99988C8.00001 6.74112 8.01075 6.48478 8.03223 6.23132C6.19987 7.4942 5.00001 9.60788 5 11.9999C5 15.8659 8.13401 18.9999 12 18.9999C14.3916 18.9999 16.5036 17.7995 17.7666 15.9677C17.5138 15.989 17.2581 15.9999 17 15.9999C12.0294 15.9999 8 11.9704 8 6.99988ZM20.5225 14.8983L19.5762 14.576L19.2539 13.6298L20.5225 14.8983ZM10 6.99988C10 10.8659 13.134 13.9999 17 13.9999C17.7902 13.9999 18.5479 13.8697 19.2539 13.6298L19.5752 14.576L20.5225 14.8983C19.3164 18.4455 15.958 20.9999 12 20.9999C7.02944 20.9999 3 16.9704 3 11.9999C3.00001 8.0417 5.55503 4.6823 9.10254 3.47644L10.3711 4.74597L10.2861 5.01257C10.1003 5.64152 10 6.30819 10 6.99988Z" fill="#4B5EFC" style="fill:#4B5EFC;fill:color(display-p3 0.2941 0.3686 0.9882);fill-opacity:1;"/>
</g>
</svg>
